<?xml version="1.0" encoding="UTF-8"?>
<svg id="Layer_1" xmlns="http://www.w3.org/2000/svg" xmlns:xlink="http://www.w3.org/1999/xlink" viewBox="0 0 112 80">
  <defs>
    <style>
      .cls-1 {
        fill: url(#linear-gradient-2);
      }

      .cls-2 {
        fill: url(#linear-gradient-4);
      }

      .cls-3 {
        fill: url(#linear-gradient-3);
      }

      .cls-4 {
        fill: url(#linear-gradient-5);
      }

      .cls-5 {
        fill: url(#linear-gradient-6);
      }

      .cls-6 {
        fill: url(#linear-gradient);
      }
    </style>
    <linearGradient id="linear-gradient" x1="28.7" y1="33.71" x2="24.65" y2="39.61" gradientUnits="userSpaceOnUse">
      <stop offset="0" stop-color="#29abe2"/>
      <stop offset=".04" stop-color="#29a1db"/>
      <stop offset=".25" stop-color="#2b79c1"/>
      <stop offset=".45" stop-color="#2c59ac"/>
      <stop offset=".65" stop-color="#2d439d"/>
      <stop offset=".84" stop-color="#2d3595"/>
      <stop offset="1" stop-color="#2e3192"/>
    </linearGradient>
    <linearGradient id="linear-gradient-2" x1="26.78" y1="39.88" x2="34" y2="39.88" xlink:href="#linear-gradient"/>
    <linearGradient id="linear-gradient-3" x1="19.6" y1="30.08" x2="32.19" y2="30.08" xlink:href="#linear-gradient"/>
    <linearGradient id="linear-gradient-4" x1="16.38" y1="40.54" x2="22.87" y2="40.54" xlink:href="#linear-gradient"/>
    <linearGradient id="linear-gradient-5" x1="22.06" y1="35.88" x2="26.12" y2="40.67" xlink:href="#linear-gradient"/>
    <linearGradient id="linear-gradient-6" x1="70.12" y1="21.57" x2="70.6" y2="50.42" gradientUnits="userSpaceOnUse">
      <stop offset=".23" stop-color="#2e3192"/>
      <stop offset=".33" stop-color="#2d3393"/>
      <stop offset=".38" stop-color="#2d3a98"/>
      <stop offset=".42" stop-color="#2d47a0"/>
      <stop offset=".45" stop-color="#2c59ac"/>
      <stop offset=".47" stop-color="#2b71bc"/>
      <stop offset=".5" stop-color="#2a8dce"/>
      <stop offset=".52" stop-color="#29abe2"/>
      <stop offset=".53" stop-color="#2997d8"/>
      <stop offset=".57" stop-color="#296fc4"/>
      <stop offset=".61" stop-color="#294fb5"/>
      <stop offset=".65" stop-color="#2939a9"/>
      <stop offset=".68" stop-color="#292ba3"/>
      <stop offset=".71" stop-color="#2927a1"/>
    </linearGradient>
  </defs>
  <path class="cls-6" d="M26.42,33.35h.98c0,1.33,0,2.64,0,3.95v3.99c.06-.11.09-.16.12-.21.3-.59.6-1.18.89-1.78.06-.13.1-.3.1-.46,0-1.72,0-3.43,0-5.15,0-.11,0-.21,0-.34h1.53c-.16.32-.32.62-.46.93-.05.11-.08.24-.08.37,0,.8,0,1.61.04,2.43.82-1.66,1.64-3.32,2.47-5.01h-6.83v13.52c.25-.47.43-.9.68-1.28.47-.71.59-1.49.58-2.37-.04-2.76-.01-5.51-.01-8.27,0-.1,0-.21,0-.34Z"/>
  <path class="cls-1" d="M29.09,41.68c-.09.51-.18,1.03-.28,1.6,1.73-.85,3.11-2.02,4.01-3.72.92-1.71,1.02-3.54.7-5.44.05.12.1.24.13.37.57,2.05.41,4.06-.3,6.05-.81,2.28-3.57,4.67-6.29,5.08-.08.01-.15.02-.29.03.77-1.36,1.51-2.67,2.25-3.99.02,0,.04.02.06.03Z"/>
  <path class="cls-3" d="M32.19,31.66h-4.44s0-.02,0-.03c.49-.14.97-.28,1.46-.41-1.75-1.76-6.29-2.92-9.61-.03.42-1.02,3.17-2.5,5.01-2.65,3.01-.25,5.6.59,7.59,3.13Z"/>
  <path class="cls-2" d="M17.03,34.95l2.2,3.86s-.02.02-.03.02c-.36-.35-.72-.71-1.09-1.07-.66,2.39.58,6.91,4.74,8.36-1.09.15-3.74-1.51-4.79-3.03-1.71-2.49-2.26-5.16-1.04-8.14Z"/>
  <polygon class="cls-4" points="20.41 40.29 18.79 37.1 20.64 34.99 20.78 38.03 21.38 37.97 21.38 34.28 22.72 33.2 22.66 37.93 23.4 37.97 23.4 32.78 24.76 32.05 24.69 46 22.3 39.31 20.41 40.29"/>
  <g>
    <path class="cls-5" d="M46.77,34.37l-1.63,6.24h-1.84l-1-4.11-1.03,4.11h-1.84l-1.58-6.24h1.63l.9,4.54,1.11-4.54h1.67l1.07,4.54.91-4.54h1.64Z"/>
    <path class="cls-5" d="M48.48,40.37c-.39-.21-.69-.5-.92-.89-.22-.38-.33-.84-.33-1.35s.11-.96.34-1.35c.22-.39.53-.69.92-.89.39-.21.83-.31,1.32-.31s.92.1,1.32.31c.39.21.7.5.92.89.22.39.34.84.34,1.35s-.11.96-.34,1.35c-.23.39-.54.69-.93.89-.39.21-.83.31-1.32.31s-.92-.1-1.31-.31ZM50.53,39.05c.2-.21.31-.52.31-.92s-.1-.7-.3-.92-.44-.32-.73-.32-.54.11-.74.32c-.2.21-.29.52-.29.92s.1.7.29.92c.19.21.43.32.72.32s.54-.11.74-.32Z"/>
    <path class="cls-5" d="M55.38,35.84c.27-.16.56-.24.89-.24v1.61h-.42c-.38,0-.66.08-.85.24s-.28.45-.28.86v2.3h-1.52v-4.96h1.52v.83c.18-.27.4-.49.67-.64Z"/>
    <path class="cls-5" d="M58.52,34.04v6.58h-1.52v-6.58h1.52Z"/>
    <path class="cls-5" d="M59.61,36.78c.19-.39.45-.68.79-.89.33-.21.7-.31,1.11-.31.33,0,.62.07.89.2s.48.32.64.55v-2.3h1.52v6.58h-1.52v-.71c-.14.24-.34.43-.61.57s-.57.21-.92.21c-.41,0-.78-.11-1.11-.32-.33-.21-.59-.51-.79-.9-.19-.39-.29-.84-.29-1.35s.1-.96.29-1.34ZM62.72,37.24c-.21-.22-.47-.33-.77-.33s-.56.11-.77.32c-.21.22-.32.51-.32.89s.11.68.32.9c.21.22.47.33.77.33s.56-.11.77-.33.32-.52.32-.9-.11-.68-.32-.9Z"/>
    <path class="cls-5" d="M74.6,34.37v6.24h-1.52v-3.74l-1.39,3.74h-1.23l-1.4-3.75v3.75h-1.52v-6.24h1.8l1.75,4.32,1.73-4.32h1.79Z"/>
    <path class="cls-5" d="M80.35,38.5h-3.44c.02.31.12.54.3.71s.39.24.64.24c.38,0,.64-.16.79-.48h1.62c-.08.33-.23.62-.45.88-.22.26-.49.46-.81.61-.33.15-.69.22-1.09.22-.49,0-.92-.1-1.3-.31-.38-.21-.68-.5-.89-.89-.21-.38-.32-.84-.32-1.35s.1-.97.32-1.35c.21-.39.5-.68.88-.89.38-.21.82-.31,1.31-.31s.91.1,1.28.3c.37.2.67.49.88.86.21.37.32.81.32,1.31,0,.14,0,.29-.03.44ZM78.82,37.65c0-.26-.09-.47-.27-.62-.18-.15-.4-.23-.67-.23s-.47.07-.64.22c-.17.15-.28.36-.32.63h1.9Z"/>
    <path class="cls-5" d="M83.36,35.84c.27-.16.56-.24.89-.24v1.61h-.42c-.38,0-.66.08-.85.24s-.28.45-.28.86v2.3h-1.52v-4.96h1.52v.83c.18-.27.4-.49.67-.64Z"/>
    <path class="cls-5" d="M88.01,40.61l-1.51-2.08v2.08h-1.52v-6.58h1.52v3.64l1.5-2.02h1.88l-2.06,2.49,2.08,2.47h-1.88Z"/>
    <path class="cls-5" d="M95.12,38.5h-3.44c.02.31.12.54.3.71s.39.24.64.24c.38,0,.64-.16.79-.48h1.62c-.08.33-.23.62-.45.88-.22.26-.49.46-.81.61-.33.15-.69.22-1.09.22-.49,0-.92-.1-1.3-.31-.38-.21-.68-.5-.89-.89-.21-.38-.32-.84-.32-1.35s.1-.97.32-1.35c.21-.39.5-.68.88-.89.38-.21.82-.31,1.31-.31s.91.1,1.28.3c.37.2.67.49.88.86.21.37.32.81.32,1.31,0,.14,0,.29-.03.44ZM93.59,37.65c0-.26-.09-.47-.27-.62-.18-.15-.4-.23-.67-.23s-.47.07-.64.22c-.17.15-.28.36-.32.63h1.9Z"/>
    <path class="cls-5" d="M98.71,39.33v1.29h-.77c-.55,0-.98-.13-1.29-.4-.31-.27-.46-.71-.46-1.32v-1.97h-.6v-1.26h.6v-1.21h1.52v1.21h1v1.26h-1v1.99c0,.15.04.25.11.32.07.07.19.1.36.1h.54Z"/>
  </g>
</svg>